<?xml version="1.0" encoding="utf-8"?>
<!-- Generator: Adobe Illustrator 23.0.5, SVG Export Plug-In . SVG Version: 6.00 Build 0)  -->
<svg version="1.1" id="Calque_1" xmlns="http://www.w3.org/2000/svg" xmlns:xlink="http://www.w3.org/1999/xlink" x="0px" y="0px"
	 viewBox="0 0 85.6 119.3" style="enable-background:new 0 0 85.6 119.3;" xml:space="preserve">
<style type="text/css">
	.st0{fill:#4F5159;}
	.st1{fill:#FFFFFF;}
	.st2{fill:#2C9B6B;}
</style>
<g>
	<path class="st0" d="M16.8,2.1c0.8-0.8,1.8-1.3,2.9-1.3c15.5,0,31.1,0,46.6,0c1.1-0.1,2.3,0.5,3.1,1.3c5.1,5.1,10.2,10.2,15.3,15.3
		c-1.4,0-2.8,0-4.1,0c0,22.2,0,78.6,0,100.8c-25,0-50,0-74.9,0c0-22.2,0-78.6,0-100.8c-1.4,0-2.8,0-4.1,0
		C6.6,12.3,11.7,7.2,16.8,2.1 M13.9,76.6c19.4,0,38.9,0,58.3,0c0-8.3,0-50.9,0-59.2c-19.4,0-38.9,0-58.3,0
		C13.9,25.7,13.9,68.3,13.9,76.6"/>
</g>
<rect x="5.6" y="44" class="st0" width="74.9" height="9.3"/>
<rect x="13.9" y="17.4" class="st1" width="58.3" height="26.6"/>
<path class="st0" d="M22.3,34.9c0-2.8,0-5.5,0-8.3c2.8,0,5.5,0,8.3,0c0,2.8,0,5.5,0,8.3C27.8,34.9,25,34.8,22.3,34.9z"/>
<path class="st0" d="M38.9,26.6c2.8,0,5.5,0,8.3,0c0,2.8,0,5.5,0,8.3c-2.8,0-5.5,0-8.3,0C38.9,32.1,38.9,29.3,38.9,26.6z"/>
<path class="st0" d="M55.6,26.6c2.8,0,5.5,0,8.3,0c0,2.8,0,5.5,0,8.3c-2.8,0-5.5,0-8.3,0C55.5,32.1,55.6,29.3,55.6,26.6z"/>
<rect x="13.9" y="53.3" class="st1" width="58.3" height="26.6"/>
<path class="st0" d="M22.3,70.8c0-2.8,0-5.5,0-8.3c2.8,0,5.5,0,8.3,0c0,2.8,0,5.5,0,8.3C27.8,70.8,25,70.8,22.3,70.8z"/>
<path class="st0" d="M38.9,62.5c2.8,0,5.5,0,8.3,0c0,2.8,0,5.5,0,8.3c-2.8,0-5.5,0-8.3,0C38.9,68,38.9,65.3,38.9,62.5z"/>
<path class="st0" d="M55.6,62.5c2.8,0,5.5,0,8.3,0c0,2.8,0,5.5,0,8.3c-2.8,0-5.5,0-8.3,0C55.5,68,55.6,65.3,55.6,62.5z"/>
<rect x="13.9" y="91.6" class="st2" width="58.3" height="26.6"/>
<path class="st1" d="M22.3,109c0-2.8,0-5.5,0-8.3c2.8,0,5.5,0,8.3,0c0,2.8,0,5.5,0,8.3C27.8,109,25,109,22.3,109z"/>
<path class="st1" d="M38.9,100.8c2.8,0,5.5,0,8.3,0c0,5.8,0,11.6,0,17.4c-2.8,0-5.5,0-8.3,0C38.9,112.4,38.9,106.6,38.9,100.8z"/>
<path class="st1" d="M55.6,100.8c2.8,0,5.5,0,8.3,0c0,2.8,0,5.5,0,8.3c-2.8,0-5.5,0-8.3,0C55.5,106.3,55.6,103.5,55.6,100.8z"/>
</svg>
