<?xml version="1.0" encoding="utf-8"?>
<!-- Generator: Adobe Illustrator 23.0.5, SVG Export Plug-In . SVG Version: 6.00 Build 0)  -->
<svg version="1.1" id="Calque_1" xmlns="http://www.w3.org/2000/svg" xmlns:xlink="http://www.w3.org/1999/xlink" x="0px" y="0px"
	 viewBox="0 0 362.8 466.5" style="enable-background:new 0 0 362.8 466.5;" xml:space="preserve">
<style type="text/css">
	.st0{fill:#4F5159;}
</style>
<g>
	<path class="st0" d="M78.7,8.6c-0.3-3.1,2.8-6.1,5.9-5.8c64.1,0,128.1,0,192.2,0c2.6-0.3,4.9,1.7,5.7,4.1c0.7,7-0.5,14.2,0.5,21.2
		c12.2,0.5,24.5,0,36.7,0.2c9-0.2,18.2,2.5,25.3,8.2c8.5,6.3,13.2,16.4,14.8,26.6c-0.3,121.3,0,242.5-0.1,363.8
		c-0.4,10.4-5.6,20.1-13.2,27.1c-4.4,3.1-8.9,6.1-14.2,7.5c-5,1.8-10.4,1.4-15.6,1.4c-93,0-186,0-279,0c-8.8-0.2-17.2-4.2-23.7-9.9
		C6.5,445.9,1.7,436,1.6,425.8c0-120.4,0-240.7,0-361.1c0.1-7,2.7-13.6,6.2-19.5c1.7-1.8,3.2-3.7,4.8-5.5c6.8-7,16.3-11.2,26.1-11.4
		c13.3-0.4,26.7,0.2,40-0.3C78.7,21.5,78.6,15.1,78.7,8.6 M90.8,14.8c-0.3,9.3-0.1,18.6-0.1,27.9c-0.1,4.1,0,8.3,1.8,12.1
		c3.1,7.1,10.5,11.9,18.2,11.9c44.7,0,89.3,0,134,0c4,0,8.1,0.3,12-1c8.1-2.4,14.1-10.5,14-19c-0.1-10.6,0.1-21.3-0.1-31.9
		C210.6,14.7,150.7,14.7,90.8,14.8 M33.5,54.9c-4.6,2.4-7.1,7.7-6.9,12.8c0,118.7,0,237.4,0,356.1c-0.4,7.1,5.7,14.1,13,14
		c94,0,188,0,282,0c5.2,0.1,10-3.4,11.9-8.2c1.6-3.8,1-7.9,1.1-11.9c0-115,0-230,0-345c0-3.9,0.4-8-1.3-11.6
		c-1.9-4.6-6.7-7.8-11.7-7.7c-13.1-0.1-26.3-0.1-39.4,0c-2.3,11.5-11.4,21.1-22.6,24.3c-4.2,1.4-8.6,1-13,1c-46.4,0-92.7,0-139,0
		c-13.7-0.9-25.8-11.9-28.5-25.3c-12.2-0.1-24.3,0-36.5-0.1C39.6,53.4,36.2,53.3,33.5,54.9z"/>
	<path class="st0" d="M131.4,119.5c3.5-4,10.8-1.1,10.7,4.2c0.1,2-0.9,3.8-2.3,5.2c-15.7,15.7-31.3,31.3-47,47
		c-2.4,2.3-4.6,5.4-8.2,5.6c-3.3-0.2-5.5-2.9-7.7-5.1c-7.2-7.2-14.4-14.4-21.6-21.6c-1.8-1.7-3.4-4.3-2.6-6.9
		c1-4.5,7.2-6.4,10.4-3.1c7.2,7,14.2,14.2,21.4,21.3C100.3,150.7,115.8,135,131.4,119.5z"/>
	<path class="st0" d="M172,118.2c2.1-0.8,4.5-0.3,6.7-0.4c41,0,82,0,123.1,0c2.6-0.2,5.3,1.3,6.2,3.8c1.7,2.8-0.3,6.2-2.7,7.8
		c-1.8,0.6-3.7,0.4-5.5,0.5c-41.6-0.1-83.3,0-125,0c-2.7,0.3-5.7-1.3-6.2-4.1C167.3,122.8,169.2,119.5,172,118.2z"/>
	<path class="st0" d="M171.8,143.9c3.2-0.6,6.6-0.3,9.8-0.3c40,0,80,0,120,0c2.5-0.3,5,0.8,6.1,3.2c2.6,3.9-1.5,9.6-6.1,9
		c-42.4,0-84.7,0-127.1,0c-2.1,0.2-4-1-5.3-2.6C167,150.2,168.2,145.2,171.8,143.9z"/>
	<path class="st0" d="M173.1,169c1.5-0.4,3.1-0.3,4.6-0.3c20,0.1,40-0.1,60.1,0.1c3.4,0,6.3,2.8,6.9,6.1c-0.2,3.5-3.3,6.7-7,6.5
		c-20.3,0.2-40.6,0-60.9,0.1c-3,0.1-6.8-0.5-8-3.7C166.9,174.1,169.5,170,173.1,169z"/>
	<path class="st0" d="M132.9,221c2.9-1.9,7.3-0.4,8.6,2.8c0.7,2.5,0.6,5.5-1.6,7.2c-17,17-34,34.1-51.1,51c-2.2,2.4-6.3,2.4-8.4,0
		c-8.4-8.3-16.7-16.7-25.1-25c-2-1.8-3.7-4.8-2.1-7.4c1.3-3.8,6.7-5.3,9.6-2.4c7.5,6.9,14.3,14.5,21.8,21.4
		c13.7-13.2,26.9-26.9,40.5-40.3C127.7,225.8,129.9,222.9,132.9,221z"/>
	<path class="st0" d="M168.6,226.7c-0.6-3,1.8-6.3,5-6c26.7-0.1,53.4-0.1,80.1-0.1c16.6,0.2,33.3-0.4,49.9,0.2
		c3.1-0.1,3.9,3.6,5.2,5.7c-1.3,2.6-3.3,4.7-5.7,6.3c-43.4-0.3-86.7,0-130.1-0.1C171.2,231.1,168.1,229.7,168.6,226.7z"/>
	<path class="st0" d="M172,246.2c1.8-0.7,3.8-0.4,5.7-0.5c41.3,0,82.7,0,124,0c4.5-0.6,8.7,5,6,9c-1.1,2.3-3.5,3.4-6,3.2
		c-42,0-84,0-126,0c-2-0.1-4.3,0.1-5.7-1.5C166.8,253.5,168,247.8,172,246.2z"/>
	<path class="st0" d="M171.7,271.9c3.6-0.6,7.3-0.3,10.9-0.3c26.4,0,52.7,0,79,0c2.4,0.1,5.3-0.2,6.9,2c3.2,3.8,0.2,10.5-4.9,10.2
		c-30,0-60.1,0.1-90.1-0.1C167.6,283.3,166.1,274,171.7,271.9z"/>
	<path class="st0" d="M66.9,332.4c-3.4-3.5,0-10.3,4.8-9.8c2.5-0.4,4.4,1.4,6,3c6.6,6.6,13.1,13.2,19.7,19.7
		c7.2-6.8,14-14,21.1-20.9c2.8-3.3,9.3-2.3,10.4,2.2c1.2,2.5-0.3,5.4-2.1,7.2c-6.8,6.8-13.5,13.6-20.4,20.3
		c6.7,7,13.6,13.7,20.4,20.5c1.8,1.8,3.3,4.5,2.2,7.1c-0.9,4.3-7.1,5.6-10,2.6c-7.2-7-14.2-14.3-21.4-21.3
		c-6.3,6.1-12.5,12.4-18.7,18.7c-1.8,1.7-3.5,4-6.1,4.1c-3.6,0.8-7.3-2.6-7.1-6.2c-0.2-2.2,1.4-3.8,2.8-5.3
		c6.8-6.7,13.5-13.4,20.2-20.1C81.6,346.9,74,339.9,66.9,332.4z"/>
	<path class="st0" d="M172,322.9c15.5-0.5,31.1-0.1,46.7-0.2c28,0,56,0,84.1,0c3.3-0.2,5.6,3,5.9,6c-0.4,2.9-2.7,6.2-5.9,5.9
		c-41.7,0-83.4,0-125.1,0c-2.6-0.1-5.7,0.6-7.7-1.5C166.9,330.3,167.9,324.4,172,322.9z"/>
	<path class="st0" d="M168.6,355.8c-0.4-2.6,0.3-6,3.1-6.8c4.6-0.8,9.3-0.4,13.9-0.4c39,0,78-0.1,117,0c3.3-0.3,5.5,3,5.7,5.9
		c-0.3,2.9-3.1,4.6-5.2,6.3c-43.4-0.2-86.7-0.1-130.1-0.1C171.6,359.3,168.7,358.3,168.6,355.8z"/>
	<path class="st0" d="M168.5,381.8c-1.5-3.8,2.1-8.4,6.1-8c42.4,0,84.7,0,127.1,0c2.6-0.3,5.3,1.3,6.3,3.8c1.7,2.8-0.3,6.3-2.7,7.9
		c-2.1,0.6-4.3,0.4-6.5,0.5c-42.4-0.2-84.7,0.2-127.1-0.2C170.4,384.6,168.7,383.6,168.5,381.8z"/>
</g>
</svg>
