<?xml version="1.0" encoding="utf-8"?>
<!-- Generator: Adobe Illustrator 23.0.5, SVG Export Plug-In . SVG Version: 6.00 Build 0)  -->
<svg version="1.1" id="Calque_1" xmlns="http://www.w3.org/2000/svg" xmlns:xlink="http://www.w3.org/1999/xlink" x="0px" y="0px"
	 viewBox="0 0 384 408" style="enable-background:new 0 0 384 408;" xml:space="preserve">
<style type="text/css">
	.st0{fill:#4F5159;}
</style>
<g>
	<path class="st0" d="M106.1,92.8c28.7-28.5,57.3-57.2,85.9-85.8c60.5,60.5,121,121,181.5,181.5c3.8,3.5,6,8.5,6.4,13.6
		c0.4,8.5-5.1,17.1-13.2,19.8c-7.1,2.8-15.5,0.6-20.9-4.6C294.6,165.9,243.3,114.6,192,63.4C140.9,114.5,89.8,165.6,38.6,216.7
		c-4.1,4.1-9.8,6.6-15.7,6.3c-8.2-0.5-15.8-6.2-18-14.2c-2.5-7.1,0.1-15.3,5.5-20.4c21.2-21.2,42.4-42.4,63.6-63.6
		c0.2-23.7-0.1-47.3,0.1-71c0.4-9.4,10.2-16.9,19.3-14.6c7.2,1.5,12.6,8.3,12.6,15.6C106,67.6,106,80.2,106.1,92.8z"/>
	<path class="st0" d="M40.7,244.2C91.3,194.1,141.6,143.8,192,93.6c50.4,50.2,100.8,100.5,151.2,150.6c0,51.3,0,102.6,0,153.8
		c0.4,3.9-3.4,7.5-7.3,7c-33.4,0-66.7,0-100.1,0c0-46.4,0-92.8,0-139.2c-25.9,0-51.9,0-77.8,0c-0.1,46.4,0,92.8,0,139.2
		c-36.7,0-73.4,0-110.1,0c-3.1,0.3-6.4-2-7.1-5.1c-0.3-2-0.2-4-0.2-6C40.7,344.1,40.7,294.1,40.7,244.2z"/>
</g>
</svg>
