<?xml version="1.0" encoding="utf-8"?>
<!-- Generator: Adobe Illustrator 23.0.5, SVG Export Plug-In . SVG Version: 6.00 Build 0)  -->
<svg version="1.1" id="Calque_1" xmlns="http://www.w3.org/2000/svg" xmlns:xlink="http://www.w3.org/1999/xlink" x="0px" y="0px"
	 viewBox="0 0 84.1 119.1" style="enable-background:new 0 0 84.1 119.1;" xml:space="preserve">
<style type="text/css">
	.st0{fill:#4F5159;}
	.st1{fill:#FFFFFF;}
	.st2{fill:#2C9B6B;}
</style>
<g>
	<path class="st0" d="M15.9,1.9c0.8-0.8,1.8-1.3,2.9-1.3c15.5,0,31.1,0,46.6,0c1.1-0.1,2.3,0.5,3.1,1.3C73.6,7,78.7,12.1,83.8,17.3
		c-1.4,0-2.8,0-4.1,0c0,22.2,0,78.6,0,100.8c-25,0-50,0-74.9,0c0-22.2,0-78.6,0-100.8c-1.4,0-2.8,0-4.1,0C5.7,12.1,10.8,7,15.9,1.9
		 M13,76.5c19.4,0,38.9,0,58.3,0c0-8.3,0-50.9,0-59.2c-19.4,0-38.9,0-58.3,0C13,25.6,13,68.2,13,76.5"/>
</g>
<rect x="4.7" y="43.9" class="st0" width="74.9" height="10.3"/>
<rect x="13" y="17.3" class="st1" width="58.3" height="26.6"/>
<path class="st0" d="M21.4,34.7c0-2.8,0-5.5,0-8.3c2.8,0,5.5,0,8.3,0c0,2.8,0,5.5,0,8.3C26.9,34.7,24.2,34.7,21.4,34.7z"/>
<path class="st0" d="M38.1,26.5c2.8,0,5.5,0,8.3,0c0,2.8,0,5.5,0,8.3c-2.8,0-5.5,0-8.3,0C38.1,32,38.1,29.2,38.1,26.5z"/>
<path class="st0" d="M54.7,26.5c2.8,0,5.5,0,8.3,0c0,2.8,0,5.5,0,8.3c-2.8,0-5.5,0-8.3,0C54.7,32,54.7,29.2,54.7,26.5z"/>
<rect x="13" y="54.2" class="st2" width="58.3" height="26.6"/>
<path class="st1" d="M21.4,71.7c0-2.8,0-5.5,0-8.3c2.8,0,5.5,0,8.3,0c0,2.8,0,5.5,0,8.3C26.9,71.7,24.2,71.7,21.4,71.7z"/>
<path class="st1" d="M38.1,63.4c2.8,0,5.5,0,8.3,0c0,2.8,0,5.5,0,8.3c-2.8,0-5.5,0-8.3,0C38.1,68.9,38.1,66.2,38.1,63.4z"/>
<path class="st1" d="M54.7,63.4c2.8,0,5.5,0,8.3,0c0,2.8,0,5.5,0,8.3c-2.8,0-5.5,0-8.3,0C54.7,68.9,54.7,66.2,54.7,63.4z"/>
<rect x="13" y="91.4" class="st2" width="58.3" height="26.6"/>
<path class="st1" d="M21.4,108.9c0-2.8,0-5.5,0-8.3c2.8,0,5.5,0,8.3,0c0,2.8,0,5.5,0,8.3C26.9,108.9,24.2,108.9,21.4,108.9z"/>
<path class="st1" d="M38.1,100.6c2.8,0,5.5,0,8.3,0c0,5.8,0,11.6,0,17.4c-2.8,0-5.5,0-8.3,0C38.1,112.3,38.1,106.5,38.1,100.6z"/>
<path class="st1" d="M54.7,100.6c2.8,0,5.5,0,8.3,0c0,2.8,0,5.5,0,8.3c-2.8,0-5.5,0-8.3,0C54.7,106.1,54.7,103.4,54.7,100.6z"/>
</svg>
