<?xml version="1.0" encoding="utf-8"?>
<!-- Generator: Adobe Illustrator 23.0.5, SVG Export Plug-In . SVG Version: 6.00 Build 0)  -->
<svg version="1.1" id="Calque_1" xmlns="http://www.w3.org/2000/svg" xmlns:xlink="http://www.w3.org/1999/xlink" x="0px" y="0px"
	 viewBox="0 0 84.6 119" style="enable-background:new 0 0 84.6 119;" xml:space="preserve">
<style type="text/css">
	.st0{fill:#4F5159;}
	.st1{fill:#2C9B6B;}
	.st2{fill:#FFFFFF;}
</style>
<g>
	<path class="st0" d="M16,2c0.8-0.8,1.8-1.3,2.9-1.3c15.5,0,31.1,0,46.6,0c1.1-0.1,2.3,0.5,3.1,1.3c5.1,5.1,10.2,10.2,15.3,15.3
		c-1.4,0-2.8,0-4.1,0c0,22.2,0,78.6,0,100.8c-25,0-50,0-74.9,0c0-22.2,0-78.6,0-100.8c-1.4,0-2.8,0-4.1,0C5.8,12.2,10.9,7.1,16,2
		 M13.2,76.6c19.4,0,38.9,0,58.3,0c0-8.3,0-50.9,0-59.2c-19.4,0-38.9,0-58.3,0C13.2,25.7,13.2,68.3,13.2,76.6"/>
</g>
<rect x="4.9" y="44" class="st0" width="74.9" height="10.3"/>
<rect x="13.2" y="17.4" class="st1" width="58.3" height="26.6"/>
<path class="st2" d="M21.5,34.8c0-2.8,0-5.5,0-8.3c2.8,0,5.5,0,8.3,0c0,2.8,0,5.5,0,8.3C27.1,34.8,24.3,34.8,21.5,34.8z"/>
<path class="st2" d="M38.2,26.6c2.8,0,5.5,0,8.3,0c0,2.8,0,5.5,0,8.3c-2.8,0-5.5,0-8.3,0C38.2,32.1,38.2,29.3,38.2,26.6z"/>
<path class="st2" d="M54.8,26.6c2.8,0,5.5,0,8.3,0c0,2.8,0,5.5,0,8.3c-2.8,0-5.5,0-8.3,0C54.8,32.1,54.8,29.3,54.8,26.6z"/>
<rect x="13.2" y="54.3" class="st1" width="58.3" height="26.6"/>
<path class="st2" d="M21.5,71.8c0-2.8,0-5.5,0-8.3c2.8,0,5.5,0,8.3,0c0,2.8,0,5.5,0,8.3C27.1,71.8,24.3,71.8,21.5,71.8z"/>
<path class="st2" d="M38.2,63.5c2.8,0,5.5,0,8.3,0c0,2.8,0,5.5,0,8.3c-2.8,0-5.5,0-8.3,0C38.2,69,38.2,66.3,38.2,63.5z"/>
<path class="st2" d="M54.8,63.5c2.8,0,5.5,0,8.3,0c0,2.8,0,5.5,0,8.3c-2.8,0-5.5,0-8.3,0C54.8,69,54.8,66.3,54.8,63.5z"/>
<rect x="13.2" y="91.5" class="st1" width="58.3" height="26.6"/>
<path class="st2" d="M21.5,109c0-2.8,0-5.5,0-8.3c2.8,0,5.5,0,8.3,0c0,2.8,0,5.5,0,8.3C27.1,109,24.3,109,21.5,109z"/>
<path class="st2" d="M38.2,100.7c2.8,0,5.5,0,8.3,0c0,5.8,0,11.6,0,17.4c-2.8,0-5.5,0-8.3,0C38.2,112.4,38.2,106.6,38.2,100.7z"/>
<path class="st2" d="M54.8,100.7c2.8,0,5.5,0,8.3,0c0,2.8,0,5.5,0,8.3c-2.8,0-5.5,0-8.3,0C54.8,106.2,54.8,103.5,54.8,100.7z"/>
</svg>
