<?xml version="1.0" encoding="utf-8"?>
<!-- Generator: Adobe Illustrator 23.0.5, SVG Export Plug-In . SVG Version: 6.00 Build 0)  -->
<svg version="1.1" id="Calque_1" xmlns="http://www.w3.org/2000/svg" xmlns:xlink="http://www.w3.org/1999/xlink" x="0px" y="0px"
	 viewBox="0 0 217 420" style="enable-background:new 0 0 217 420;" xml:space="preserve">
<style type="text/css">
	.st0{fill:#4F5159;}
</style>
<g>
	<path class="st0" d="M18.1,132.4C34.3,81.9,66,35.8,110,5.8c26.8,18.3,49.2,42.7,66.1,70.3c49.9,81.1,52,188.7,6.4,272.1
		c-6.9,12.7-15,24.7-23.9,36c-1.6,2-3.3,3.8-5.3,5.4c5.6-12.9,11-25.9,14.5-39.5c10.8-40.6,11-84,0.6-124.8
		c-9.6-37-28.5-72.7-58.4-97.3c-16.1,13.1-29,29.8-39,47.9C48.3,217.4,40.6,266.2,45.4,313c2.5,23.7,8.4,47,18,68.8
		c1.2,2.5,2.4,5.1,3.4,7.8c-3.2-2.3-5.4-5.5-7.8-8.5c-20.5-26.4-35.3-57-44.2-89.2C0.6,239.9,1.4,183.7,18.1,132.4z"/>
	<path class="st0" d="M84,347.9c1.5-21,9.5-42.6,26.1-56.3c12.3,10.1,19.9,25,23.6,40.4c3.9,16.5,3.3,34.2-1.8,50.4
		c-4.3,12.8-11,25.4-21.9,33.7c-4.7-3.2-8.2-7.8-11.5-12.4C87.4,387.5,82.8,367.3,84,347.9z"/>
</g>
</svg>
