<?xml version="1.0" encoding="utf-8"?>
<!-- Generator: Adobe Illustrator 23.0.5, SVG Export Plug-In . SVG Version: 6.00 Build 0)  -->
<svg version="1.1" id="Calque_1" xmlns="http://www.w3.org/2000/svg" xmlns:xlink="http://www.w3.org/1999/xlink" x="0px" y="0px"
	 viewBox="0 0 271 463" style="enable-background:new 0 0 271 463;" xml:space="preserve">
<style type="text/css">
	.st0{fill:#4F5159;}
</style>
<path class="st0" d="M119.3,7.4c1.9-2.7,5.3-4.6,8.6-4.4c39.7,0,79.4,0,119,0c4.1-0.3,7.6,2.5,9.8,5.6c1.4,3.2-0.3,6.5-2.2,9.1
	c-28.8,49.1-57.6,98.3-86.4,147.4c29.2,0,58.4,0,87.6,0c3.9-0.2,7.7,1.7,10.5,4.4c1.6,3,2.6,7.2,0.3,10.2
	c-69.7,91.7-139.3,183.4-209,275.1c-2.7,3.9-7.6,5.4-12.2,4.4c-1.2-2.7-4.5-3.6-5.5-6.5c-1.3-3.6,0.9-7,1.9-10.4
	C62.8,381,83.7,320,104.4,258.9c-30.5-0.1-60.9,0-91.4-0.1c-5,0.2-8.8-5.3-8.1-9.9C43.2,168.5,81.1,87.8,119.3,7.4z"/>
</svg>
