<?xml version="1.0" encoding="utf-8"?>
<!-- Generator: Adobe Illustrator 23.0.5, SVG Export Plug-In . SVG Version: 6.00 Build 0)  -->
<svg version="1.1" id="Calque_1" xmlns="http://www.w3.org/2000/svg" xmlns:xlink="http://www.w3.org/1999/xlink" x="0px" y="0px"
	 viewBox="0 0 290.4 186.7" style="enable-background:new 0 0 290.4 186.7;" xml:space="preserve">
<style type="text/css">
	.st0{fill:#2C9B6B;}
	.st1{opacity:0.44;fill:#4F5159;enable-background:new    ;}
	.st2{opacity:0.45;fill:#4F5159;enable-background:new    ;}
</style>
<g>
	<path class="st0" d="M113.6,1.8h64c6.1,0,11,4.9,11,11l0,0c0,6.1-4.9,11-11,11h-64c-6.1,0-11-4.9-11-11l0,0
		C102.6,6.7,107.5,1.8,113.6,1.8z"/>
	<path class="st0" d="M30.7,35.2c123-0.1,106.9-0.1,229.9,0c9.4,2.4,17.7,9.2,21.1,18.3c10.1,28.9,10.1,61.3-0.1,90.1
		c-3.5,9.6-12.6,16.3-22.4,18.4c-122,0.1-105.1,0.1-227.1,0c-9.8-2.1-18.9-8.8-22.4-18.4C-0.5,115-0.6,83,9.2,54.3
		C12.4,44.8,21,37.6,30.7,35.2z"/>
	<path class="st0" d="M41.1,172.6c10.7,0,21.3,0,32,0c0,4.3,0,8.7,0,13c-10.7,0-21.3,0-32,0C41.1,181.3,41.1,177,41.1,172.6z"/>
	<path class="st0" d="M220.1,172.6c10.7,0,21.3,0,32,0c0,4.3,0,8.7,0,13c-10.7,0-21.3,0-32,0C220.1,181.3,220.1,177,220.1,172.6z"/>
</g>
<g>
	<path class="st1" d="M25.8,35.9c1.5-0.7,3.2-0.8,4.9-0.7C21,37.6,12.4,44.8,9.2,54.3C-0.6,83-0.5,115,9.6,143.7
		c3.5,9.6,12.6,16.3,22.4,18.4c-5.7,0.7-10.6-2.9-15-6c-4.5-3.7-7.5-9.1-9.2-14.6C-0.9,114.6-1.1,85.1,7,58
		C9.2,48.2,16.3,39.4,25.8,35.9z"/>
</g>
<g>
	<path class="st2" d="M260.6,35.2c6-0.5,11.1,3.5,15.1,7.4c4.5,4,7,9.7,8.5,15.4c8,26.3,7.9,54.8-0.1,81.1
		c-2,7.7-6.4,15.4-13.5,19.4c-3.4,2.1-7.3,4-11.4,3.6c9.9-2.1,18.9-8.8,22.4-18.4c10.2-28.9,10.2-61.2,0.1-90.1
		C278.3,44.4,270,37.6,260.6,35.2z"/>
</g>
</svg>
