<?xml version="1.0" encoding="utf-8"?>
<!-- Generator: Adobe Illustrator 23.0.5, SVG Export Plug-In . SVG Version: 6.00 Build 0)  -->
<svg version="1.1" id="Calque_1" xmlns="http://www.w3.org/2000/svg" xmlns:xlink="http://www.w3.org/1999/xlink" x="0px" y="0px"
	 viewBox="0 0 489 455" style="enable-background:new 0 0 489 455;" xml:space="preserve">
<style type="text/css">
	.st0{fill:#4F5159;}
</style>
<g>
	<path class="st0" d="M98.3,4.1c6.7-1.2,14.1,2.5,17,8.7c1.6,3.1,1.9,6.7,1.9,10.2c-0.1,14-0.1,28,0,42.1c0,3.7-0.4,7.6-2.3,10.8
		c-3.8,7-13.3,10.5-20.5,6.8c-6.2-2.5-9.8-9.1-9.7-15.6c0-15.7-0.1-31.4,0-47C84.9,12.3,90.8,5.3,98.3,4.1z"/>
	<path class="st0" d="M242.3,4.1c7-1.3,14.6,2.9,17.3,9.4c2,4.6,1.5,9.6,1.6,14.5c0,11.7-0.1,23.3,0,35c0,4.1,0,8.4-1.9,12.2
		c-3.4,7.2-12.8,11.1-20.1,7.8c-6.5-2.3-10.6-9.2-10.4-15.9c-0.1-14,0.1-28,0-42c0-4.4,0-9,2.3-12.9C233.3,7.8,237.7,5,242.3,4.1z"
		/>
	<path class="st0" d="M386.4,4.1c9-1.8,18.4,5.8,18.7,15c0.4,13.3,0,26.6,0.2,40c-0.1,5.4,0.6,11.2-1.9,16.2
		c-3.5,7.4-13.4,11.2-20.8,7.5c-6.2-2.5-9.8-9.1-9.7-15.6c-0.1-13.7,0.1-27.4-0.1-41c0-4.7-0.2-9.7,2.3-13.9
		C377.3,7.9,381.7,5,386.4,4.1z"/>
	<path class="st0" d="M39.1,38c9.7-3,20-2.2,30.1-2.2C69.4,47.9,69,59.9,69.3,72c0.5,16.1,15.6,29.9,31.7,29.5
		c16.1,0.5,31.1-13.4,31.7-29.5c0.3-12.1,0-24.1,0.1-36.2c26.8-0.1,53.6-0.1,80.4,0c0.2,12.1-0.2,24.1,0.1,36.2
		c0.6,15.8,15,29.4,30.7,29.5c16.4,1,32-13,32.6-29.5c0.3-12.1-0.1-24.1,0.1-36.2c26.8-0.1,53.6-0.1,80.4,0c0.1,11.4,0,22.8,0,34.2
		c0,7.8,2.8,16,8.9,21.1c0.2,0.2,0.5,0.5,0.7,0.7c10.8,12.9,33.5,12.9,44.3,0c0.2-0.2,0.5-0.5,0.7-0.7c6-5.2,8.9-13.3,8.9-21.1
		c0-11.4-0.1-22.8,0-34.2c9.2,0,18.6-0.8,27.7,1.5c12.2,3,23,11,29.6,21.7c3.7,5.7,5.3,12.5,7.2,19c0.4,1.6,0.4,3.3,0.4,4.9
		c0,107.4,0,214.7,0,322.1c-0.2,12.4-5.1,24.9-14.1,33.6c-8.7,9-21.2,13.9-33.6,14.1c-129,0-258,0-387.1,0
		c-14.7-0.5-29.2-7.8-37.7-20c-6-8.3-9-18.5-9-28.7c0-107,0-214.1,0-321.1c0-1.8,0.1-3.5,0.8-5.1c0.8-2.5,1.1-5.2,1.9-7.7
		C11.4,54.9,24,42.5,39.1,38 M37.2,164.1c0.2,71.6,0,143.2,0.1,214.8c0.1,4.5-0.4,9.1,0.5,13.5c1.9,6.5,8.3,11.6,15.2,11.3
		c128,0,256.1,0,384.1,0c8.4,0.5,16.2-7.3,15.7-15.7c0.1-74.6-0.1-149.3,0.1-223.9c-45.3,0.2-90.6,0-135.9,0.1
		C223.7,164.2,130.4,164.4,37.2,164.1z"/>
	<path class="st0" d="M171.3,196.1c3.5-0.6,7.1-0.4,10.7-0.4c12.7,0.1,25.4-0.1,38,0.1c3.4-0.1,7,1.6,8.4,5
		c1.2,3.3,0.8,6.8,0.9,10.2c-0.1,7-0.1,14,0,21c-0.1,3.3,0,7.2-2.6,9.7c-2.5,2.6-6.4,2.5-9.7,2.6c-13.7-0.1-27.4,0-41.1,0
		c-3-0.1-6.5-0.2-8.7-2.6c-2.8-2.8-2.5-7.1-2.6-10.7c0.2-9-0.2-18,0.2-27C164.9,200.4,167.6,196.8,171.3,196.1z"/>
	<path class="st0" d="M267.3,196.1c2.2-0.4,4.4-0.4,6.7-0.4c13,0.1,26,0.1,39,0c3.3,0.1,7.2-0.1,9.7,2.6c2.4,2.2,2.5,5.7,2.5,8.7
		c0,8.4-0.1,16.7,0,25.1c0,3.3,0,7.2-2.6,9.7c-2.5,2.6-6.4,2.5-9.7,2.6c-13.7-0.1-27.4,0-41.1,0c-3.3,0-7-0.3-9.2-3.1
		c-2.4-2.8-1.9-6.7-2.1-10.1c0.2-9-0.2-18,0.2-27C260.9,200.4,263.6,196.8,267.3,196.1z"/>
	<path class="st0" d="M363.3,196.1c1.9-0.4,3.8-0.4,5.7-0.4c13.3,0.1,26.7,0.1,40,0c3.3,0.1,7.2,0,9.7,2.6c2.6,2.5,2.5,6.4,2.6,9.7
		c-0.1,8.4,0,16.7,0,25.1c-0.1,3-0.2,6.5-2.5,8.7c-2.2,2.4-5.7,2.5-8.7,2.5c-13.7,0-27.4,0-41.1,0c-3.3-0.1-7.2,0.1-9.7-2.6
		c-3.1-3-2.4-7.8-2.6-11.7c0.2-8.6-0.2-17.3,0.2-26C357,200.4,359.6,196.8,363.3,196.1z"/>
	<path class="st0" d="M75.3,260.1c1.9-0.4,3.8-0.4,5.7-0.4c13.7,0.1,27.4,0,41.1,0c3,0.1,6.4,0.2,8.7,2.6c2.6,2.5,2.5,6.4,2.6,9.7
		c-0.1,8.3,0,16.7,0,25.1c0,3-0.2,6.4-2.6,8.7c-2.8,2.9-7.1,2.5-10.7,2.6c-14-0.1-28,0.1-42-0.1c-4,0.2-8.2-2.4-8.8-6.5
		c-0.8-5.5-0.3-11.1-0.4-16.7c0.1-6-0.4-11.9,0.2-17.9C69.3,263.8,71.9,260.7,75.3,260.1z"/>
	<path class="st0" d="M171.3,260.1c2.5-0.5,5.1-0.4,7.7-0.4c13,0.1,26,0,39,0c3,0.1,6.5,0.2,8.7,2.6c2.8,2.8,2.5,7.1,2.6,10.7
		c-0.2,8,0,16,0,24.1c-0.1,3-0.2,6.4-2.6,8.6c-2.5,2.6-6.3,2.5-9.7,2.6c-13.7-0.1-27.4,0-41.1,0c-3,0-6.4-0.2-8.7-2.5
		c-3.1-3.1-2.5-7.8-2.6-11.7c0.3-8.6-0.2-17.3,0.2-25.9C164.9,264.4,167.6,260.8,171.3,260.1z"/>
	<path class="st0" d="M267.3,260.1c8.9-0.9,17.8-0.1,26.7-0.4c7.6,0.1,15.3-0.2,23,0.1c4.4-0.1,8.1,3.8,8.1,8.2
		c0.4,8.6-0.1,17.3,0.2,25.9c-0.1,3.9,0.5,8.7-2.6,11.7c-2.5,2.6-6.4,2.5-9.7,2.6c-14-0.1-28.1,0-42.1,0c-3.4,0-7.3-1-9-4.3
		c-1.8-3.7-1.1-8-1.2-11.9c0.2-8-0.2-16,0.1-23.9C260.9,264.4,263.6,260.8,267.3,260.1z"/>
	<path class="st0" d="M363.3,260.1c2.2-0.4,4.4-0.4,6.7-0.4c13,0.1,26,0,39,0c3.3,0.1,7.2-0.1,9.7,2.6c2.4,2.2,2.5,5.6,2.5,8.7
		c0,8.4-0.1,16.7,0,25.1c0,3.3,0,7.2-2.6,9.7c-2.2,2.3-5.7,2.5-8.7,2.6c-13.7,0-27.4-0.1-41.1,0c-3.3-0.1-7.2,0-9.7-2.6
		c-2.9-2.7-2.5-7.1-2.6-10.7c0.2-9-0.2-18,0.2-27C356.9,264.4,359.6,260.8,363.3,260.1z"/>
	<path class="st0" d="M75.3,324.1c2.5-0.5,5.1-0.4,7.7-0.4c13.7,0.1,27.3-0.1,41,0.1c3.7-0.1,7.6,2,8.6,5.7
		c1.1,4.7,0.4,9.6,0.6,14.5c-0.2,6.9,0.3,13.9-0.2,20.8c-0.3,4.5-4.7,7.6-9,7.3c-14,0.2-28,0-42,0.1c-3.6-0.1-7.9,0.3-10.7-2.6
		c-2.9-2.8-2.5-7.1-2.6-10.7c0.1-8.7-0.1-17.4,0.1-26C68.7,329,71.2,324.8,75.3,324.1z"/>
	<path class="st0" d="M171.3,324.1c1.8-0.4,3.8-0.4,5.6-0.4c13.7,0.1,27.4,0.1,41.1,0c3,0.1,6.5,0.2,8.7,2.6
		c2.6,2.5,2.5,6.4,2.6,9.7c-0.1,8.4,0,16.7,0,25.1c-0.1,3-0.2,6.4-2.6,8.6c-2.8,2.9-7.1,2.5-10.7,2.6c-14-0.1-28,0.1-42-0.1
		c-4,0.2-8.1-2.4-8.8-6.5c-0.8-5.5-0.3-11.1-0.4-16.7c0.1-6-0.4-11.9,0.2-17.9C165.3,327.8,167.9,324.7,171.3,324.1z"/>
	<path class="st0" d="M267.3,324.1c8.8-0.9,17.8-0.1,26.7-0.4c7.7,0.1,15.3-0.2,23,0.1c4.4,0,8.1,3.8,8.1,8.1
		c0.4,8.6-0.1,17.3,0.2,26c-0.1,3.9,0.5,8.6-2.6,11.7c-2.8,2.9-7,2.5-10.7,2.6c-14-0.2-28,0.1-42-0.1c-3.7,0.1-7.6-2-8.6-5.7
		c-1-4.1-0.5-8.3-0.6-12.5c0.2-7.3-0.3-14.6,0.1-22C260.9,328.4,263.6,324.8,267.3,324.1z"/>
</g>
</svg>
